# xmcd
#
# Track frame offsets:
#	150
#	1636
#	19792
#	29363
#	43050
#	66825
#	82845
#	102240
#	114719
#	126991
#	153359
#	182708
#	206533
#
# Disc length: 3018 seconds
#
# Revision: 0
# Processed by: cddbd v1.5.2PL0 Copyright (c) Steve Scherf et al.
# Submitted via: audiograbber 1.83.01
#
DISCID=a00bc80d
DTITLE=Ural Thomas - Natural Motion
DYEAR=2010
DGENRE=Rhythmic Soul
TTITLE0=Intro
TTITLE1=Can't Change The World
TTITLE2=The Lie Pt 1
TTITLE3=The Lie Pt 2
TTITLE4=In The Book
TTITLE5=Nobody's Perfect
TTITLE6=All Because Of You
TTITLE7=Sho' Make Me Wanna Scream Pt 1
TTITLE8=Sho' Make Me Wanna Scream Pt 2
TTITLE9=When It's On It's Own
TTITLE10=Please Mr. Custer
TTITLE11=The Children's Rage
TTITLE12=Nothing Like Love
EXTD=
EXTT0=
EXTT1=
EXTT2=
EXTT3=
EXTT4=
EXTT5=
EXTT6=
EXTT7=
EXTT8=
EXTT9=
EXTT10=
EXTT11=
EXTT12=
PLAYORDER=
